<svg xmlns="http://www.w3.org/2000/svg" xmlns:xlink="http://www.w3.org/1999/xlink" width="16" height="16" viewBox="0 0 16 16"><defs><path id="kcxma" d="M881.86 3000.8v1.22c0 .19-.16.34-.35.34h-1.25a.35.35 0 0 1-.36-.34v-1.22c0-.2.16-.35.36-.35h1.25c.2 0 .35.15.35.35zm3.12 1.22c0 .19-.16.34-.36.34h-1.24a.35.35 0 0 1-.36-.34v-1.22c0-.2.16-.35.36-.35h1.24c.2 0 .36.15.36.35zm3.12 0c0 .19-.16.34-.36.34h-1.25a.35.35 0 0 1-.35-.34v-1.22c0-.2.16-.35.35-.35h1.25c.2 0 .36.15.36.35zm-6.24 1.82v1.22c0 .2-.16.35-.35.35h-1.25a.35.35 0 0 1-.36-.35v-1.22c0-.19.16-.34.36-.34h1.25c.2 0 .35.15.35.34zm3.12 1.22c0 .2-.16.35-.36.35h-1.24a.35.35 0 0 1-.36-.35v-1.22c0-.19.16-.34.36-.34h1.24c.2 0 .36.15.36.34zm3.12-1.22v1.22c0 .2-.16.35-.36.35h-1.25a.35.35 0 0 1-.35-.35v-1.22c0-.19.16-.34.35-.34h1.25c.2 0 .36.15.36.34zm3.6-8.45v10.92a1.4 1.4 0 0 1-1.41 1.39H877.7a1.4 1.4 0 0 1-1.41-1.39v-10.92c0-.74.62-1.35 1.37-1.38v1.87c0 .84.7 1.52 1.56 1.52h.98c.87 0 1.57-.68 1.57-1.52V2994h4.44v1.87c0 .84.7 1.52 1.57 1.52h.98c.86 0 1.56-.68 1.56-1.52V2994a1.4 1.4 0 0 1 1.37 1.38zm-1.83 10.24V3000a.6.6 0 0 0-.6-.6H878.7a.6.6 0 0 0-.6.6v5.64c0 .33.26.6.6.6h10.55a.6.6 0 0 0 .61-.6zm-11.18-9.75v-3.06c0-.29.24-.52.54-.52h.97c.3 0 .53.23.53.52v3.06c0 .28-.23.52-.53.52h-.97a.53.53 0 0 1-.54-.52zm8.55 0v-3.06c0-.29.24-.52.53-.52h.98c.3 0 .53.23.53.52v3.06c0 .28-.24.52-.53.52h-.98a.53.53 0 0 1-.53-.52z"/></defs><g><g transform="translate(-876 -2992)"><use fill="#2f2d2c" xlink:href="#kcxma"/></g></g></svg>